# xmcd CD database file
# Generated: Sun Aug 31 23:03:22 2003 by KSCD
# 
# Track frame offsets:
#       150
#       10705
#       27562
#       43527
#       58332
#       72635
#       87507
#       98557
#       116737
#       131335
#       148137
#       162907
#       177717
#       191385
#
# Disc length: 2722 seconds
#
# Revision: 1
# Processed by: cddbd v1.4PL0 Copyright (c) Steve Scherf et al.
# Submitted via: Kscd 1.3.3
#
DISCID=cb0aa00e
DTITLE=Tokio Uchida - Tokio Acoustic Blues
DYEAR=1900
DGENRE=
TTITLE0=Thanks To Stefan
TTITLE1=St. Louis Blues
TTITLE2=Raggin' Slow Blues
TTITLE3=G Rag Paradise
TTITLE4=Durham Meeting
TTITLE5=Georgia On My Mind
TTITLE6=Lonnie's Mystique
TTITLE7=Lightnin' in Mississippi
TTITLE8=Black Eye Blues
TTITLE9=Corrina Corrina
TTITLE10=Kawazu
TTITLE11=The Sun Sinking into the Sea
TTITLE12=Big Bill's Shuffle
TTITLE13=Charley Patton Jam Session
EXTD=(C) 2000 TAB Guitar School, Tokyo, Japan.\nTAB CD-1009\nJASRAC R-00202
EXTD=06
EXTT0=
EXTT1=
EXTT2=
EXTT3=
EXTT4=
EXTT5=
EXTT6=
EXTT7=
EXTT8=
EXTT9=
EXTT10=
EXTT11=
EXTT12=
EXTT13=
PLAYORDER=
